# xmcd
#
# Track frame offsets: 
#        150
#        18170
#        36685
#        48982
#        66125
#        90632
#        109915
#        129220
#        149792
#        170490
#        194430
#
# Disc length: 2929 seconds
#
# Revision: 7
# Processed by: cddbd v1.5.2PL0 Copyright (c) Steve Scherf et al.
# Submitted via: ExactAudioCopy v1.3
#
DISCID=9f0b6f0b
DTITLE=K.D. Lang - Recollection
DYEAR=2010
DGENRE=Country
TTITLE0=Help Me [2007]
TTITLE1=Hush Sweet Lover [1993]
TTITLE2=Beautifully Combined [2009]
TTITLE3=Roy Orbison And K.D. Lang - Crying [1987]
TTITLE4=Love For Sale [2006]
TTITLE5=Golden Slumbers, The End [John Lennon And Paul McCartney] [200
TTITLE5=6]
TTITLE6=Barefoot [1991]
TTITLE7=Moonglow [with Tony Bennett] [Live, Unplugged] [2007]
TTITLE8=So In Love [1990]
TTITLE9=Calling All Angels [with Jane Siberry] [1991]
TTITLE10=Hallelujah [New Version] [2010]
EXTD=YEAR: 2010
EXTT0=
EXTT1=
EXTT2=
EXTT3=
EXTT4=
EXTT5=
EXTT6=
EXTT7=
EXTT8=
EXTT9=
EXTT10=
PLAYORDER=
